# xmcd
#
# Track frame offsets:
#	150
#	17102
#	31075
#	47362
#	63092
#	83625
#	95417
#	109407
#	122012
#	138022
#	148877
#	166622
#	180957
#	199520
#	217047
#	228110
#
# Disc length: 3313 seconds
#
# Revision: 1
# Processed by: cddbd v1.5.2PL0 Copyright (c) Steve Scherf et al.
# Submitted via: audiograbber 1.83.01
#
DISCID=c30cef10
DTITLE=Various Artist - The London R and B Sessions Live At Hope and Anchor
DYEAR=1979
DGENRE=Blues
TTITLE0=Lew Lewis Reformer - You'd Better Watch Yourself
TTITLE1=Lew Lewis Reformer - Shake And Finger Pop
TTITLE2=Bogey Boys - Madison Blues
TTITLE3=Red Beans and Rice - Finger In My Eye
TTITLE4=Wilko Johnson's Solid Senders - Whammy
TTITLE5=Untouchables - I Can't Be Satiesfied
TTITLE6=Bogey Boys - You Can't Catch Me
TTITLE7=Cannibals - Just For Fun
TTITLE8=Pirates - Tear It Up
TTITLE9=Hope and Anchor House Band - Just A Little Bit
TTITLE10=Red Beans and Rice - Pucker Up Buttercup
TTITLE11=American Blues Legends - Why Do Everything Happen To Me
TTITLE12=Little Roosters - Roostering With Intent
TTITLE13=Blues Band - Deathletter
TTITLE14=Bishops - Taste and Try
TTITLE15=Pirates - All In It Together
EXTD=Recorded live at the Hope and Anchor Islington
EXTT0=
EXTT1=
EXTT2=
EXTT3=
EXTT4=
EXTT5=
EXTT6=
EXTT7=
EXTT8=
EXTT9=
EXTT10=
EXTT11=
EXTT12=
EXTT13=
EXTT14=
EXTT15=
PLAYORDER=
